<svg width="300" height="300" viewBox="0 0 300 300" fill="none" xmlns="http://www.w3.org/2000/svg">
<path d="M268.55 89.0625L155.775 26.5625C153.922 25.5416 151.841 25.0062 149.725 25.0062C147.609 25.0062 145.528 25.5416 143.675 26.5625L31.45 88.5625C29.5004 89.642 27.8749 91.2231 26.7418 93.1421C25.6086 95.061 25.0091 97.248 25.0053 99.4765C25.0015 101.705 25.5935 103.894 26.72 105.817C27.8465 107.74 29.4666 109.326 31.4125 110.412L144.188 173.412C146.044 174.456 148.138 175.005 150.267 175.007C152.397 175.009 154.491 174.464 156.35 173.425L268.575 110.925C270.525 109.841 272.148 108.255 273.278 106.331C274.408 104.408 275.002 102.217 275 99.9864C274.997 97.7557 274.398 95.5663 273.264 93.6455C272.129 91.7246 270.502 90.1422 268.55 89.0625V89.0625Z" fill="url(#paint0_linear_2_5)"/>
<path d="M150 198.2L43.5625 139.075L31.425 160.925L143.925 223.425C145.782 224.456 147.87 224.997 149.994 224.997C152.117 224.997 154.206 224.456 156.062 223.425L268.562 160.925L256.425 139.075L150 198.2Z" fill="url(#paint1_linear_2_5)"/>
<path d="M150 248.2L43.5625 189.075L31.425 210.925L143.925 273.425C145.782 274.456 147.87 274.997 149.994 274.997C152.117 274.997 154.206 274.456 156.062 273.425L268.562 210.925L256.425 189.075L150 248.2Z" fill="url(#paint2_linear_2_5)"/>
<defs>
<linearGradient id="paint0_linear_2_5" x1="150" y1="73" x2="150" y2="219" gradientUnits="userSpaceOnUse">
<stop stop-color="#5C60F5"/>
<stop offset="1" stop-color="#5CF5F5"/>
</linearGradient>
<linearGradient id="paint1_linear_2_5" x1="150" y1="111" x2="150" y2="225" gradientUnits="userSpaceOnUse">
<stop stop-color="#5C60F5"/>
<stop offset="1" stop-color="#5CF5F5"/>
</linearGradient>
<linearGradient id="paint2_linear_2_5" x1="150" y1="123" x2="149.994" y2="274.997" gradientUnits="userSpaceOnUse">
<stop stop-color="#5C60F5"/>
<stop offset="1" stop-color="#5CF5F5"/>
</linearGradient>
</defs>
</svg>
