<svg width="465" height="144" viewBox="0 0 465 144" fill="none" xmlns="http://www.w3.org/2000/svg">
<path d="M89.5167 51.6875L51.925 30.8542C51.3073 30.5139 50.6136 30.3354 49.9083 30.3354C49.2031 30.3354 48.5094 30.5139 47.8917 30.8542L10.4833 51.5208C9.83348 51.8807 9.29164 52.4077 8.91393 53.0474C8.53622 53.687 8.33638 54.416 8.3351 55.1588C8.33383 55.9017 8.53117 56.6313 8.90668 57.2723C9.28219 57.9132 9.82222 58.4421 10.4708 58.8042L48.0625 79.8042C48.6814 80.1519 49.3792 80.3349 50.089 80.3356C50.7989 80.3363 51.4971 80.1548 52.1167 79.8083L89.525 58.975C90.1748 58.6136 90.7161 58.0849 91.0927 57.4438C91.4693 56.8026 91.6674 56.0724 91.6666 55.3288C91.6657 54.5852 91.4659 53.8555 91.0879 53.2152C90.7098 52.5749 90.1673 52.0474 89.5167 51.6875Z" fill="#5C60F5"/>
<path d="M50 88.0667L14.5208 68.3583L10.475 75.6417L47.975 96.475C48.5938 96.8187 49.2901 96.999 49.9979 96.999C50.7058 96.999 51.402 96.8187 52.0208 96.475L89.5208 75.6417L85.475 68.3583L50 88.0667Z" fill="#5C60F5"/>
<path d="M50 104.733L14.5208 85.025L10.475 92.3083L47.975 113.142C48.5938 113.485 49.2901 113.666 49.9979 113.666C50.7058 113.666 51.402 113.485 52.0208 113.142L89.5208 92.3083L85.475 85.025L50 104.733Z" fill="#5C60F5"/>
<g filter="url(#filter0_i_2_10)">
<path d="M145.336 106.672C140.408 106.672 135.992 105.872 132.088 104.272C128.184 102.672 125.048 100.304 122.68 97.168C120.376 94.032 119.16 90.256 119.032 85.84H136.504C136.76 88.336 137.624 90.256 139.096 91.6C140.568 92.88 142.488 93.52 144.856 93.52C147.288 93.52 149.208 92.976 150.616 91.888C152.024 90.736 152.728 89.168 152.728 87.184C152.728 85.52 152.152 84.144 151 83.056C149.912 81.968 148.536 81.072 146.872 80.368C145.272 79.664 142.968 78.864 139.96 77.968C135.608 76.624 132.056 75.28 129.304 73.936C126.552 72.592 124.184 70.608 122.2 67.984C120.216 65.36 119.224 61.936 119.224 57.712C119.224 51.44 121.496 46.544 126.04 43.024C130.584 39.44 136.504 37.648 143.8 37.648C151.224 37.648 157.208 39.44 161.752 43.024C166.296 46.544 168.728 51.472 169.048 57.808H151.288C151.16 55.632 150.36 53.936 148.888 52.72C147.416 51.44 145.528 50.8 143.224 50.8C141.24 50.8 139.64 51.344 138.424 52.432C137.208 53.456 136.6 54.96 136.6 56.944C136.6 59.12 137.624 60.816 139.672 62.032C141.72 63.248 144.92 64.56 149.272 65.968C153.624 67.44 157.144 68.848 159.832 70.192C162.584 71.536 164.952 73.488 166.936 76.048C168.92 78.608 169.912 81.904 169.912 85.936C169.912 89.776 168.92 93.264 166.936 96.4C165.016 99.536 162.2 102.032 158.488 103.888C154.776 105.744 150.392 106.672 145.336 106.672ZM196.431 34.96V106H180.015V34.96H196.431ZM216.583 46.864C213.703 46.864 211.335 46.032 209.479 44.368C207.687 42.64 206.791 40.528 206.791 38.032C206.791 35.472 207.687 33.36 209.479 31.696C211.335 29.968 213.703 29.104 216.583 29.104C219.399 29.104 221.703 29.968 223.495 31.696C225.351 33.36 226.279 35.472 226.279 38.032C226.279 40.528 225.351 42.64 223.495 44.368C221.703 46.032 219.399 46.864 216.583 46.864ZM224.743 52.432V106H208.327V52.432H224.743ZM233.376 79.12C233.376 73.616 234.4 68.784 236.448 64.624C238.56 60.464 241.408 57.264 244.992 55.024C248.576 52.784 252.576 51.664 256.992 51.664C260.512 51.664 263.712 52.4 266.592 53.872C269.536 55.344 271.84 57.328 273.504 59.824V34.96H289.92V106H273.504V98.32C271.968 100.88 269.76 102.928 266.88 104.464C264.064 106 260.768 106.768 256.992 106.768C252.576 106.768 248.576 105.648 244.992 103.408C241.408 101.104 238.56 97.872 236.448 93.712C234.4 89.488 233.376 84.624 233.376 79.12ZM273.504 79.216C273.504 75.12 272.352 71.888 270.048 69.52C267.808 67.152 265.056 65.968 261.792 65.968C258.528 65.968 255.744 67.152 253.44 69.52C251.2 71.824 250.08 75.024 250.08 79.12C250.08 83.216 251.2 86.48 253.44 88.912C255.744 91.28 258.528 92.464 261.792 92.464C265.056 92.464 267.808 91.28 270.048 88.912C272.352 86.544 273.504 83.312 273.504 79.216ZM352.292 78.352C352.292 79.888 352.196 81.488 352.004 83.152H314.852C315.108 86.48 316.164 89.04 318.02 90.832C319.94 92.56 322.276 93.424 325.028 93.424C329.124 93.424 331.972 91.696 333.572 88.24H351.044C350.148 91.76 348.516 94.928 346.148 97.744C343.844 100.56 340.932 102.768 337.412 104.368C333.892 105.968 329.956 106.768 325.604 106.768C320.356 106.768 315.684 105.648 311.588 103.408C307.492 101.168 304.292 97.968 301.988 93.808C299.684 89.648 298.532 84.784 298.532 79.216C298.532 73.648 299.652 68.784 301.892 64.624C304.196 60.464 307.396 57.264 311.492 55.024C315.588 52.784 320.292 51.664 325.604 51.664C330.788 51.664 335.396 52.752 339.428 54.928C343.46 57.104 346.596 60.208 348.836 64.24C351.14 68.272 352.292 72.976 352.292 78.352ZM335.492 74.032C335.492 71.216 334.532 68.976 332.612 67.312C330.692 65.648 328.292 64.816 325.412 64.816C322.66 64.816 320.324 65.616 318.404 67.216C316.548 68.816 315.396 71.088 314.948 74.032H335.492ZM377.368 61.36C379.288 58.416 381.688 56.112 384.568 54.448C387.448 52.72 390.648 51.856 394.168 51.856V69.232H389.656C385.56 69.232 382.488 70.128 380.44 71.92C378.392 73.648 377.368 76.72 377.368 81.136V106H360.952V52.432H377.368V61.36ZM443.295 106L429.567 85.36L417.471 106H398.847L420.447 71.728L398.367 38.608H417.471L431.007 58.96L442.911 38.608H461.535L440.127 72.592L462.399 106H443.295Z" fill="#5C60F5"/>
</g>
<defs>
<filter id="filter0_i_2_10" x="119.032" y="29.104" width="343.366" height="77.664" filterUnits="userSpaceOnUse" color-interpolation-filters="sRGB">
<feFlood flood-opacity="0" result="BackgroundImageFix"/>
<feBlend mode="normal" in="SourceGraphic" in2="BackgroundImageFix" result="shape"/>
<feColorMatrix in="SourceAlpha" type="matrix" values="0 0 0 0 0 0 0 0 0 0 0 0 0 0 0 0 0 0 127 0" result="hardAlpha"/>
<feOffset/>
<feGaussianBlur stdDeviation="5"/>
<feComposite in2="hardAlpha" operator="arithmetic" k2="-1" k3="1"/>
<feColorMatrix type="matrix" values="0 0 0 0 0 0 0 0 0 0 0 0 0 0 0 0 0 0 0.2 0"/>
<feBlend mode="normal" in2="shape" result="effect1_innerShadow_2_10"/>
</filter>
</defs>
</svg>
