<svg width="64" height="64" viewBox="0 0 64 64" fill="none" xmlns="http://www.w3.org/2000/svg">
<circle cx="32" cy="32" r="32" fill="#0D0E11"/>
<path d="M49.3426 23.0851L32.8446 13.942C32.5736 13.7926 32.2691 13.7143 31.9596 13.7143C31.6501 13.7143 31.3456 13.7926 31.0745 13.942L14.657 23.012C14.3718 23.1699 14.134 23.4012 13.9683 23.6819C13.8025 23.9627 13.7148 24.2826 13.7142 24.6086C13.7137 24.9346 13.8003 25.2549 13.9651 25.5361C14.1299 25.8174 14.3669 26.0495 14.6515 26.2085L31.1495 35.4248C31.4211 35.5774 31.7273 35.6577 32.0389 35.658C32.3504 35.6583 32.6568 35.5787 32.9288 35.4266L49.3462 26.2834C49.6314 26.1248 49.869 25.8928 50.0343 25.6114C50.1995 25.33 50.2865 25.0095 50.2861 24.6832C50.2857 24.3569 50.198 24.0366 50.0321 23.7556C49.8662 23.4746 49.6281 23.2431 49.3426 23.0851Z" fill="white"/>
<path d="M31.9997 39.0509L16.4289 30.4015L14.6533 33.5979L31.111 42.7411C31.3826 42.8919 31.6882 42.9711 31.9988 42.9711C32.3095 42.9711 32.615 42.8919 32.8866 42.7411L49.3443 33.5979L47.5687 30.4015L31.9997 39.0509Z" fill="white"/>
<path d="M31.9997 46.3656L16.4289 37.7161L14.6533 40.9126L31.111 50.0557C31.3826 50.2066 31.6882 50.2857 31.9988 50.2857C32.3095 50.2857 32.615 50.2066 32.8866 50.0557L49.3443 40.9126L47.5687 37.7161L31.9997 46.3656Z" fill="white"/>
</svg>
