<svg width="563" height="151" viewBox="0 0 563 151" fill="none" xmlns="http://www.w3.org/2000/svg">
<g filter="url(#filter0_i_2_10)">
<rect x="0.06604" y="0.0660248" width="150" height="150" rx="20" fill="url(#paint0_linear_2_10)"/>
</g>
<path d="M114.583 54.7536L76.9911 33.9202C76.3735 33.5799 75.6797 33.4015 74.9745 33.4015C74.2692 33.4015 73.5755 33.5799 72.9578 33.9202L35.5495 54.5869C34.8996 54.9467 34.3578 55.4738 33.9801 56.1134C33.6024 56.7531 33.4025 57.482 33.4012 58.2249C33.4 58.9677 33.5973 59.6974 33.9728 60.3383C34.3483 60.9793 34.8883 61.5081 35.537 61.8702L73.1286 82.8702C73.7475 83.2179 74.4453 83.4009 75.1552 83.4017C75.865 83.4024 76.5632 83.2208 77.1828 82.8744L114.591 62.0411C115.241 61.6797 115.782 61.151 116.159 60.5098C116.535 59.8687 116.734 59.1384 116.733 58.3948C116.732 57.6513 116.532 56.9215 116.154 56.2812C115.776 55.6409 115.233 55.1135 114.583 54.7536V54.7536Z" fill="white"/>
<path d="M75.0661 91.1327L39.587 71.4244L35.5411 78.7077L73.0411 99.5411C73.66 99.8847 74.3562 100.065 75.0641 100.065C75.7719 100.065 76.4681 99.8847 77.087 99.5411L114.587 78.7077L110.541 71.4244L75.0661 91.1327Z" fill="white"/>
<path d="M75.0661 107.799L39.587 88.0911L35.5411 95.3744L73.0411 116.208C73.66 116.551 74.3562 116.732 75.0641 116.732C75.7719 116.732 76.4681 116.551 77.087 116.208L114.587 95.3744L110.541 88.0911L75.0661 107.799Z" fill="white"/>
<g filter="url(#filter1_i_2_10)">
<path d="M242.402 109.738C237.474 109.738 233.058 108.938 229.154 107.338C225.25 105.738 222.114 103.37 219.746 100.234C217.442 97.098 216.226 93.322 216.098 88.906H233.57C233.826 91.402 234.69 93.322 236.162 94.666C237.634 95.946 239.554 96.586 241.922 96.586C244.354 96.586 246.274 96.042 247.682 94.954C249.09 93.802 249.794 92.234 249.794 90.25C249.794 88.586 249.218 87.21 248.066 86.122C246.978 85.034 245.602 84.138 243.938 83.434C242.338 82.73 240.034 81.93 237.026 81.034C232.674 79.69 229.122 78.346 226.37 77.002C223.618 75.658 221.25 73.674 219.266 71.05C217.282 68.426 216.29 65.002 216.29 60.778C216.29 54.506 218.562 49.61 223.106 46.09C227.65 42.506 233.57 40.714 240.866 40.714C248.29 40.714 254.274 42.506 258.818 46.09C263.362 49.61 265.794 54.538 266.114 60.874H248.354C248.226 58.698 247.426 57.002 245.954 55.786C244.482 54.506 242.594 53.866 240.29 53.866C238.306 53.866 236.706 54.41 235.49 55.498C234.274 56.522 233.666 58.026 233.666 60.01C233.666 62.186 234.69 63.882 236.738 65.098C238.786 66.314 241.986 67.626 246.338 69.034C250.69 70.506 254.21 71.914 256.898 73.258C259.65 74.602 262.018 76.554 264.002 79.114C265.986 81.674 266.978 84.97 266.978 89.002C266.978 92.842 265.986 96.33 264.002 99.466C262.082 102.602 259.266 105.098 255.554 106.954C251.842 108.81 247.458 109.738 242.402 109.738ZM293.497 38.026V109.066H277.081V38.026H293.497ZM313.649 49.93C310.769 49.93 308.401 49.098 306.545 47.434C304.753 45.706 303.857 43.594 303.857 41.098C303.857 38.538 304.753 36.426 306.545 34.762C308.401 33.034 310.769 32.17 313.649 32.17C316.465 32.17 318.769 33.034 320.561 34.762C322.417 36.426 323.345 38.538 323.345 41.098C323.345 43.594 322.417 45.706 320.561 47.434C318.769 49.098 316.465 49.93 313.649 49.93ZM321.809 55.498V109.066H305.393V55.498H321.809ZM330.442 82.186C330.442 76.682 331.466 71.85 333.514 67.69C335.626 63.53 338.474 60.33 342.058 58.09C345.642 55.85 349.642 54.73 354.058 54.73C357.578 54.73 360.778 55.466 363.658 56.938C366.602 58.41 368.906 60.394 370.57 62.89V38.026H386.986V109.066H370.57V101.386C369.034 103.946 366.826 105.994 363.946 107.53C361.13 109.066 357.834 109.834 354.058 109.834C349.642 109.834 345.642 108.714 342.058 106.474C338.474 104.17 335.626 100.938 333.514 96.778C331.466 92.554 330.442 87.69 330.442 82.186ZM370.57 82.282C370.57 78.186 369.418 74.954 367.114 72.586C364.874 70.218 362.122 69.034 358.858 69.034C355.594 69.034 352.81 70.218 350.506 72.586C348.266 74.89 347.146 78.09 347.146 82.186C347.146 86.282 348.266 89.546 350.506 91.978C352.81 94.346 355.594 95.53 358.858 95.53C362.122 95.53 364.874 94.346 367.114 91.978C369.418 89.61 370.57 86.378 370.57 82.282ZM449.358 81.418C449.358 82.954 449.262 84.554 449.07 86.218H411.918C412.174 89.546 413.23 92.106 415.086 93.898C417.006 95.626 419.342 96.49 422.094 96.49C426.19 96.49 429.038 94.762 430.638 91.306H448.11C447.214 94.826 445.582 97.994 443.214 100.81C440.91 103.626 437.998 105.834 434.478 107.434C430.958 109.034 427.022 109.834 422.67 109.834C417.422 109.834 412.75 108.714 408.654 106.474C404.558 104.234 401.358 101.034 399.054 96.874C396.75 92.714 395.598 87.85 395.598 82.282C395.598 76.714 396.718 71.85 398.958 67.69C401.262 63.53 404.462 60.33 408.558 58.09C412.654 55.85 417.358 54.73 422.67 54.73C427.854 54.73 432.462 55.818 436.494 57.994C440.526 60.17 443.662 63.274 445.902 67.306C448.206 71.338 449.358 76.042 449.358 81.418ZM432.558 77.098C432.558 74.282 431.598 72.042 429.678 70.378C427.758 68.714 425.358 67.882 422.478 67.882C419.726 67.882 417.39 68.682 415.47 70.282C413.614 71.882 412.462 74.154 412.014 77.098H432.558ZM474.434 64.426C476.354 61.482 478.754 59.178 481.634 57.514C484.514 55.786 487.714 54.922 491.234 54.922V72.298H486.722C482.626 72.298 479.554 73.194 477.506 74.986C475.458 76.714 474.434 79.786 474.434 84.202V109.066H458.018V55.498H474.434V64.426ZM540.361 109.066L526.633 88.426L514.537 109.066H495.913L517.513 74.794L495.433 41.674H514.537L528.073 62.026L539.977 41.674H558.601L537.193 75.658L559.465 109.066H540.361Z" fill="url(#paint1_linear_2_10)"/>
</g>
<defs>
<filter id="filter0_i_2_10" x="0.06604" y="0.0660248" width="150" height="150" filterUnits="userSpaceOnUse" color-interpolation-filters="sRGB">
<feFlood flood-opacity="0" result="BackgroundImageFix"/>
<feBlend mode="normal" in="SourceGraphic" in2="BackgroundImageFix" result="shape"/>
<feColorMatrix in="SourceAlpha" type="matrix" values="0 0 0 0 0 0 0 0 0 0 0 0 0 0 0 0 0 0 127 0" result="hardAlpha"/>
<feOffset/>
<feGaussianBlur stdDeviation="7.5"/>
<feComposite in2="hardAlpha" operator="arithmetic" k2="-1" k3="1"/>
<feColorMatrix type="matrix" values="0 0 0 0 0 0 0 0 0 0 0 0 0 0 0 0 0 0 0.2 0"/>
<feBlend mode="normal" in2="shape" result="effect1_innerShadow_2_10"/>
</filter>
<filter id="filter1_i_2_10" x="216.098" y="32.17" width="343.366" height="77.664" filterUnits="userSpaceOnUse" color-interpolation-filters="sRGB">
<feFlood flood-opacity="0" result="BackgroundImageFix"/>
<feBlend mode="normal" in="SourceGraphic" in2="BackgroundImageFix" result="shape"/>
<feColorMatrix in="SourceAlpha" type="matrix" values="0 0 0 0 0 0 0 0 0 0 0 0 0 0 0 0 0 0 127 0" result="hardAlpha"/>
<feOffset/>
<feGaussianBlur stdDeviation="5"/>
<feComposite in2="hardAlpha" operator="arithmetic" k2="-1" k3="1"/>
<feColorMatrix type="matrix" values="0 0 0 0 0 0 0 0 0 0 0 0 0 0 0 0 0 0 0.2 0"/>
<feBlend mode="normal" in2="shape" result="effect1_innerShadow_2_10"/>
</filter>
<linearGradient id="paint0_linear_2_10" x1="4.96909" y1="145.07" x2="123.763" y2="26.2757" gradientUnits="userSpaceOnUse">
<stop stop-color="#5C60F5"/>
<stop offset="1" stop-color="#C7ACFF"/>
</linearGradient>
<linearGradient id="paint1_linear_2_10" x1="223.507" y1="142.269" x2="303.762" y2="-52.7955" gradientUnits="userSpaceOnUse">
<stop stop-color="#5C60F5"/>
<stop offset="1" stop-color="#C7ACFF"/>
</linearGradient>
</defs>
</svg>
